# xmcd
#
# Track frame offsets:
#	150
#	16428
#	38605
#	54199
#	67151
#	84004
#	99993
#	126198
#	141696
#	160338
#
# Disc length: 2388 seconds
#
# Revision: 1
# Processed by: cddbd v1.5.2PL0 Copyright (c) Steve Scherf et al.
# Submitted via: audiograbber 1.83.01
#
DISCID=7f09520a
DTITLE=Johnny Flynn - Country Mile
DYEAR=2013
DGENRE=Country
TTITLE0=Country Mile
TTITLE1=After Eliot
TTITLE2=The Lady is Risen
TTITLE3=Murmuration
TTITLE4=Gypsy Hymn
TTITLE5=Fol-de-rol
TTITLE6=Einstein's Idea
TTITLE7=Tinker's Trail
TTITLE8=Bottom of the Sea Blues
TTITLE9=Time Unremembered
EXTD=
EXTT0=
EXTT1=
EXTT2=
EXTT3=
EXTT4=
EXTT5=
EXTT6=
EXTT7=
EXTT8=
EXTT9=
PLAYORDER=
